<svg width="1920" height="1080" viewBox="0 0 1920 1080" xmlns="http://www.w3.org/2000/svg">
  <defs>
    <linearGradient id="bg" x1="0" y1="0" x2="0" y2="1">
      <stop offset="0%" stop-color="#181a1f"/>
      <stop offset="100%" stop-color="#1c2027"/>
    </linearGradient>
    <linearGradient id="gearTop" x1="0" y1="0" x2="1" y2="1">
      <stop offset="0%" stop-color="#f8fafc"/>
      <stop offset="35%" stop-color="#d1d5db"/>
      <stop offset="70%" stop-color="#9ca3af"/>
      <stop offset="100%" stop-color="#6b7280"/>
    </linearGradient>
    <linearGradient id="gearFlank" x1="0" y1="0" x2="0" y2="1">
      <stop offset="0%" stop-color="#6b7280"/>
      <stop offset="50%" stop-color="#4b5563"/>
      <stop offset="100%" stop-color="#374151"/>
    </linearGradient>
    <pattern id="grid" width="30" height="30" patternUnits="userSpaceOnUse">
      <path d="M 30 0 L 0 0 0 30" fill="none" stroke="#2a303c" stroke-width="0.7"/>
    </pattern>
  </defs>

  <rect width="1920" height="1080" fill="url(#bg)"/>
  <rect width="1920" height="1040" fill="url(#grid)" opacity="0.8"/>

  <!-- AutoCAD Header -->
  <rect width="1920" height="36" fill="#131518"/>
  <rect x="10" y="8" width="20" height="20" rx="3" fill="#e01a22"/>
  <text x="14" y="23" fill="#ffffff" font-family="sans-serif" font-size="13" font-weight="bold">A</text>
  <text x="40" y="23" fill="#94a3b8" font-family="Segoe UI, sans-serif" font-size="12">Autodesk AutoCAD 2027 - EDUCATION (NON COMMERCIAL)  Drawing111.dwg</text>
  <text x="1650" y="23" fill="#cbd5e1" font-family="Segoe UI, sans-serif" font-size="12">hariharadasa074</text>

  <!-- Viewport HUD -->
  <text x="15" y="60" fill="#cbd5e1" font-family="Consolas, monospace" font-size="13">[-][SW Isometric][Shaded (Fast)]</text>

  <!-- ViewCube -->
  <g transform="translate(1820, 110) rotate(-15)">
    <polygon points="0,-40 38,-20 0,0 -38,-20" fill="#525b68" stroke="#3b424d" stroke-width="1.5"/>
    <polygon points="-38,-20 0,0 0,40 -38,20" fill="#3b424d" stroke="#2d333b" stroke-width="1.5"/>
    <polygon points="0,0 38,-20 38,20 0,40" fill="#444c58" stroke="#2d333b" stroke-width="1.5"/>
    <text x="-12" y="-15" fill="#f1f5f9" font-family="Segoe UI, sans-serif" font-size="10" font-weight="bold">TOP</text>
    <text x="-24" y="22" fill="#f1f5f9" font-family="Segoe UI, sans-serif" font-size="9" font-weight="bold">FRONT</text>
    <text x="4" y="22" fill="#f1f5f9" font-family="Segoe UI, sans-serif" font-size="9" font-weight="bold">LEFT</text>
  </g>
  <text x="1810" y="180" fill="#94a3b8" font-family="Consolas, monospace" font-size="10">WCS</text>

  <!-- UCS Icon -->
  <g transform="translate(45, 960)">
    <line x1="0" y1="0" x2="35" y2="25" stroke="#ef4444" stroke-width="3"/>
    <text x="38" y="32" fill="#ef4444" font-family="Consolas, monospace" font-weight="bold" font-size="12">X</text>
    <line x1="0" y1="0" x2="30" y2="-25" stroke="#22c55e" stroke-width="3"/>
    <text x="32" y="-28" fill="#22c55e" font-family="Consolas, monospace" font-weight="bold" font-size="12">Y</text>
    <line x1="0" y1="0" x2="0" y2="-40" stroke="#3b82f6" stroke-width="3"/>
    <text x="-4" y="-45" fill="#3b82f6" font-family="Consolas, monospace" font-weight="bold" font-size="12">Z</text>
  </g>

  <!-- 3D Spur Gear Model -->
  <g transform="translate(960, 480) rotate(16) skewX(-16)">
    <!-- Flank Extrusion Thickness -->
    <g transform="translate(0, 80)">
      <line x1="340.0" y1="-80.0" x2="340.0" y2="0.0" stroke="url(#gearFlank)" stroke-width="40" stroke-linecap="round"/>
      <line x1="319.5" y1="-1.3" x2="319.5" y2="78.7" stroke="url(#gearFlank)" stroke-width="40" stroke-linecap="round"/>
      <line x1="260.5" y1="67.8" x2="260.5" y2="147.8" stroke="url(#gearFlank)" stroke-width="40" stroke-linecap="round"/>
      <line x1="170.0" y1="119.2" x2="170.0" y2="199.2" stroke="url(#gearFlank)" stroke-width="40" stroke-linecap="round"/>
      <line x1="59.0" y1="146.5" x2="59.0" y2="226.5" stroke="url(#gearFlank)" stroke-width="40" stroke-linecap="round"/>
      <line x1="-59.0" y1="146.5" x2="-59.0" y2="226.5" stroke="url(#gearFlank)" stroke-width="40" stroke-linecap="round"/>
      <line x1="-170.0" y1="119.2" x2="-170.0" y2="199.2" stroke="url(#gearFlank)" stroke-width="40" stroke-linecap="round"/>
      <line x1="-260.5" y1="67.8" x2="-260.5" y2="147.8" stroke="url(#gearFlank)" stroke-width="40" stroke-linecap="round"/>
      <line x1="-319.5" y1="-1.3" x2="-319.5" y2="78.7" stroke="url(#gearFlank)" stroke-width="40" stroke-linecap="round"/>
      <line x1="-340.0" y1="-80.0" x2="-340.0" y2="0.0" stroke="url(#gearFlank)" stroke-width="40" stroke-linecap="round"/>
      <line x1="-319.5" y1="-158.7" x2="-319.5" y2="-78.7" stroke="url(#gearFlank)" stroke-width="40" stroke-linecap="round"/>
      <line x1="-260.5" y1="-227.8" x2="-260.5" y2="-147.8" stroke="url(#gearFlank)" stroke-width="40" stroke-linecap="round"/>
      <line x1="-170.0" y1="-279.2" x2="-170.0" y2="-199.2" stroke="url(#gearFlank)" stroke-width="40" stroke-linecap="round"/>
      <line x1="-59.0" y1="-306.5" x2="-59.0" y2="-226.5" stroke="url(#gearFlank)" stroke-width="40" stroke-linecap="round"/>
      <line x1="59.0" y1="-306.5" x2="59.0" y2="-226.5" stroke="url(#gearFlank)" stroke-width="40" stroke-linecap="round"/>
      <line x1="170.0" y1="-279.2" x2="170.0" y2="-199.2" stroke="url(#gearFlank)" stroke-width="40" stroke-linecap="round"/>
      <line x1="260.5" y1="-227.8" x2="260.5" y2="-147.8" stroke="url(#gearFlank)" stroke-width="40" stroke-linecap="round"/>
      <line x1="319.5" y1="-158.7" x2="319.5" y2="-78.7" stroke="url(#gearFlank)" stroke-width="40" stroke-linecap="round"/>

      <ellipse cx="0" cy="0" rx="270" ry="180" fill="url(#gearFlank)" />
    </g>

    <!-- Top Gear Face -->
    <ellipse cx="0" cy="0" rx="340" ry="230" fill="url(#gearTop)" stroke="#f3f4f6" stroke-width="4"/>
    <ellipse cx="0" cy="0" rx="290" ry="195" fill="none" stroke="#ffffff" stroke-width="3" stroke-dasharray="8,6"/>
    <ellipse cx="335.0" cy="0.0" rx="24" ry="16" fill="url(#gearTop)" stroke="#ffffff" stroke-width="2.5"/>
    <ellipse cx="314.8" cy="77.0" rx="24" ry="16" fill="url(#gearTop)" stroke="#ffffff" stroke-width="2.5"/>
    <ellipse cx="256.6" cy="144.6" rx="24" ry="16" fill="url(#gearTop)" stroke="#ffffff" stroke-width="2.5"/>
    <ellipse cx="167.5" cy="194.9" rx="24" ry="16" fill="url(#gearTop)" stroke="#ffffff" stroke-width="2.5"/>
    <ellipse cx="58.2" cy="221.6" rx="24" ry="16" fill="url(#gearTop)" stroke="#ffffff" stroke-width="2.5"/>
    <ellipse cx="-58.2" cy="221.6" rx="24" ry="16" fill="url(#gearTop)" stroke="#ffffff" stroke-width="2.5"/>
    <ellipse cx="-167.5" cy="194.9" rx="24" ry="16" fill="url(#gearTop)" stroke="#ffffff" stroke-width="2.5"/>
    <ellipse cx="-256.6" cy="144.6" rx="24" ry="16" fill="url(#gearTop)" stroke="#ffffff" stroke-width="2.5"/>
    <ellipse cx="-314.8" cy="77.0" rx="24" ry="16" fill="url(#gearTop)" stroke="#ffffff" stroke-width="2.5"/>
    <ellipse cx="-335.0" cy="0.0" rx="24" ry="16" fill="url(#gearTop)" stroke="#ffffff" stroke-width="2.5"/>
    <ellipse cx="-314.8" cy="-77.0" rx="24" ry="16" fill="url(#gearTop)" stroke="#ffffff" stroke-width="2.5"/>
    <ellipse cx="-256.6" cy="-144.6" rx="24" ry="16" fill="url(#gearTop)" stroke="#ffffff" stroke-width="2.5"/>
    <ellipse cx="-167.5" cy="-194.9" rx="24" ry="16" fill="url(#gearTop)" stroke="#ffffff" stroke-width="2.5"/>
    <ellipse cx="-58.2" cy="-221.6" rx="24" ry="16" fill="url(#gearTop)" stroke="#ffffff" stroke-width="2.5"/>
    <ellipse cx="58.2" cy="-221.6" rx="24" ry="16" fill="url(#gearTop)" stroke="#ffffff" stroke-width="2.5"/>
    <ellipse cx="167.5" cy="-194.9" rx="24" ry="16" fill="url(#gearTop)" stroke="#ffffff" stroke-width="2.5"/>
    <ellipse cx="256.6" cy="-144.6" rx="24" ry="16" fill="url(#gearTop)" stroke="#ffffff" stroke-width="2.5"/>
    <ellipse cx="314.8" cy="-77.0" rx="24" ry="16" fill="url(#gearTop)" stroke="#ffffff" stroke-width="2.5"/>

    <!-- Recessed Web -->
    <ellipse cx="0" cy="0" rx="220" ry="150" fill="#4b5563" stroke="#374151" stroke-width="4"/>
    <ellipse cx="0" cy="0" rx="210" ry="142" fill="#1f2937"/>

    <!-- Raised Cylindrical Hub Boss -->
    <ellipse cx="0" cy="-14" rx="130" ry="88" fill="url(#gearTop)" stroke="#ffffff" stroke-width="4"/>
    <ellipse cx="0" cy="0" rx="124" ry="84" fill="#6b7280"/>
    <ellipse cx="0" cy="-14" rx="120" ry="80" fill="url(#gearTop)"/>

    <!-- Shaft Bore with Keyway -->
    <ellipse cx="0" cy="-14" rx="55" ry="38" fill="#0f172a" stroke="#38bdf8" stroke-width="3.5"/>
    <!-- Keyway cut -->
    <path d="M -14 -50 L 14 -50 L 14 -35 L -14 -35 Z" fill="#0f172a" stroke="#38bdf8" stroke-width="3"/>
  </g>

  <!-- AutoCAD Bottom Bar -->
  <rect y="1044" width="1920" height="36" fill="#16181d"/>
  <rect x="15" y="1049" width="60" height="26" fill="#2d333b" rx="2"/>
  <text x="28" y="1066" fill="#ffffff" font-family="Segoe UI, sans-serif" font-size="11" font-weight="bold">Model</text>
  <text x="90" y="1066" fill="#94a3b8" font-family="Segoe UI, sans-serif" font-size="11">Layout1</text>
  <text x="150" y="1066" fill="#94a3b8" font-family="Segoe UI, sans-serif" font-size="11">Layout2</text>
  <text x="260" y="1066" fill="#cbd5e1" font-family="Consolas, monospace" font-size="12">Type a command</text>
  <text x="1750" y="1066" fill="#38bdf8" font-family="Segoe UI, sans-serif" font-size="11" font-weight="bold">MODEL</text>
</svg>